<svg id="discord" xmlns="http://www.w3.org/2000/svg" width="32.532" height="24.786" viewBox="0 0 32.532 24.786">
  <path id="discord-2" data-name="discord" d="M53.582,34.093a.083.083,0,0,0-.042-.039A26.837,26.837,0,0,0,46.918,32a.1.1,0,0,0-.106.05,18.67,18.67,0,0,0-.824,1.693,24.778,24.778,0,0,0-7.437,0,17.123,17.123,0,0,0-.837-1.693.1.1,0,0,0-.106-.05,26.762,26.762,0,0,0-6.622,2.053.1.1,0,0,0-.044.037A27.436,27.436,0,0,0,26.135,52.6a.112.112,0,0,0,.042.076,26.981,26.981,0,0,0,8.123,4.1.105.105,0,0,0,.114-.037,19.265,19.265,0,0,0,1.662-2.7.1.1,0,0,0-.056-.143,17.769,17.769,0,0,1-2.538-1.209.1.1,0,0,1-.01-.173c.171-.128.341-.261.5-.395a.1.1,0,0,1,.105-.014,19.245,19.245,0,0,0,16.349,0,.1.1,0,0,1,.106.013c.163.134.333.268.505.4a.1.1,0,0,1-.009.173A16.676,16.676,0,0,1,48.494,53.9a.1.1,0,0,0-.055.144,21.634,21.634,0,0,0,1.661,2.7.1.1,0,0,0,.114.039,26.891,26.891,0,0,0,8.136-4.1.1.1,0,0,0,.042-.075A27.255,27.255,0,0,0,53.582,34.093ZM36.871,48.906a3.3,3.3,0,0,1,0-6.555,3.3,3.3,0,0,1,0,6.555Zm10.81,0a3.3,3.3,0,0,1,0-6.555,3.3,3.3,0,0,1,0,6.555Z" transform="translate(-26 -31.999)" fill="#cd3737"/>
</svg>
