<svg id="instagram" xmlns="http://www.w3.org/2000/svg" width="24.8" height="24.795" viewBox="0 0 24.8 24.795">
  <path id="instagram-2" data-name="instagram" d="M12.328,37.865a6.357,6.357,0,1,0,6.357,6.357A6.347,6.347,0,0,0,12.328,37.865Zm0,10.49a4.133,4.133,0,1,1,4.133-4.133,4.14,4.14,0,0,1-4.133,4.133Zm8.1-10.75a1.483,1.483,0,1,1-1.483-1.483A1.479,1.479,0,0,1,20.428,37.605Zm4.21,1.5a7.338,7.338,0,0,0-2-5.2,7.386,7.386,0,0,0-5.2-2c-2.047-.116-8.183-.116-10.23,0a7.375,7.375,0,0,0-5.2,2,7.362,7.362,0,0,0-2,5.2c-.116,2.047-.116,8.183,0,10.23a7.338,7.338,0,0,0,2,5.2,7.4,7.4,0,0,0,5.2,2c2.047.116,8.183.116,10.23,0a7.338,7.338,0,0,0,5.2-2,7.386,7.386,0,0,0,2-5.2C24.754,47.287,24.754,41.157,24.638,39.11ZM21.993,51.531a4.184,4.184,0,0,1-2.357,2.357c-1.632.647-5.505.5-7.309.5s-5.682.144-7.309-.5a4.184,4.184,0,0,1-2.357-2.357c-.647-1.632-.5-5.5-.5-7.309s-.144-5.682.5-7.309a4.184,4.184,0,0,1,2.357-2.357c1.632-.647,5.505-.5,7.309-.5s5.682-.144,7.309.5a4.184,4.184,0,0,1,2.357,2.357c.647,1.632.5,5.5.5,7.309S22.641,49.9,21.993,51.531Z" transform="translate(0.075 -31.825)" fill="#cd3737"/>
</svg>
