<svg id="steam-symbol" xmlns="http://www.w3.org/2000/svg" width="24.786" height="21.251" viewBox="0 0 24.786 21.251">
  <path id="steam-symbol-2" data-name="steam-symbol" d="M21.882,70.28A3.375,3.375,0,1,1,18.507,66.9,3.378,3.378,0,0,1,21.882,70.28Zm2.9.011a6.291,6.291,0,0,1-6.291,6.3L12.449,81a4.7,4.7,0,0,1-9.267.542L0,80.266V74.329L5.378,76.5a4.567,4.567,0,0,1,2.877-.636l3.928-5.627a6.3,6.3,0,0,1,12.6.05ZM11.231,80.543a3.452,3.452,0,0,0-4.2-3.375l1.438.581a2.743,2.743,0,1,1-2.047,5.09c-.564-.221-1.134-.459-1.7-.675a3.458,3.458,0,0,0,6.512-1.621Zm11.48-10.252A4.224,4.224,0,1,0,18.5,74.507,4.225,4.225,0,0,0,22.712,70.291Z" transform="translate(0 -64)" fill="#cd3737"/>
</svg>
