<svg id="youtube" xmlns="http://www.w3.org/2000/svg" width="30.216" height="21.245" viewBox="0 0 30.216 21.245">
  <path id="youtube-2" data-name="youtube" d="M44.517,67.324a3.8,3.8,0,0,0-2.671-2.689C39.49,64,30.041,64,30.041,64s-9.449,0-11.805.635a3.8,3.8,0,0,0-2.671,2.689,42.747,42.747,0,0,0,0,14.64,3.74,3.74,0,0,0,2.671,2.646c2.356.635,11.805.635,11.805.635s9.449,0,11.805-.635a3.74,3.74,0,0,0,2.671-2.646,42.747,42.747,0,0,0,0-14.64ZM26.951,79.137V70.151l7.9,4.493Z" transform="translate(-14.933 -64)" fill="#cd3737"/>
</svg>
