<svg id="twitter" xmlns="http://www.w3.org/2000/svg" width="28.327" height="23.007" viewBox="0 0 28.327 23.007">
  <path id="twitter-2" data-name="twitter" d="M25.415,53.816c.018.252.018.5.018.755,0,7.675-5.842,16.518-16.518,16.518A16.406,16.406,0,0,1,0,68.483a12.011,12.011,0,0,0,1.4.072,11.627,11.627,0,0,0,7.208-2.48,5.816,5.816,0,0,1-5.428-4.026,7.324,7.324,0,0,0,1.1.09,6.14,6.14,0,0,0,1.528-.2,5.806,5.806,0,0,1-4.655-5.7V56.17a5.847,5.847,0,0,0,2.624.737,5.814,5.814,0,0,1-1.8-7.765,16.5,16.5,0,0,0,11.971,6.075,6.554,6.554,0,0,1-.144-1.33,5.811,5.811,0,0,1,10.048-3.972,11.43,11.43,0,0,0,3.685-1.4,5.79,5.79,0,0,1-2.552,3.2,11.639,11.639,0,0,0,3.343-.9A12.48,12.48,0,0,1,25.415,53.816Z" transform="translate(0 -48.082)" fill="#fff"/>
</svg>
